/* XPM */
static char *result[] = {
/* columns rows colors chars-per-pixel */
"60 60 74 1 ",
"  c #110F25",
". c #141227",
"X c #161429",
"o c #19172C",
"O c #1B192E",
"+ c #1E1C30",
"@ c #201E32",
"# c #252336",
"$ c #272538",
"% c #29273A",
"& c #2D2B3D",
"* c #2F2E40",
"= c #312F41",
"- c #353344",
"; c #383647",
": c #393748",
"> c #3D3B4C",
", c #454353",
"< c #494756",
"1 c #494856",
"2 c #4D4C5A",
"3 c #504F5E",
"4 c #52515E",
"5 c #565462",
"6 c #595764",
"7 c #5B5966",
"8 c #5E5C69",
"9 c #615F6C",
"0 c #63626E",
"q c #666571",
"w c #686773",
"e c #6B6A76",
"r c #6F6E7B",
"t c #73727C",
"y c #79787F",
"u c #777680",
"i c #7C7B85",
"p c #828287",
"a c #83828A",
"s c #88878F",
"d c #89898E",
"f c #8B8A91",
"g c #908F97",
"h c #929297",
"j c #95949A",
"k c #98979E",
"l c #99999E",
"z c #9C9BA2",
"x c #A3A3A6",
"c c #A5A4A9",
"v c #A8A7AD",
"b c #AAAAAE",
"n c #ADADB3",
"m c #B2B2B5",
"M c #B7B6BA",
"N c #BBBBBD",
"B c #C0C0BE",
"V c #BDBDC1",
"C c #C4C3C4",
"Z c #C6C6C8",
"A c #CDCDCC",
"S c #D0D0CF",
"D c #D2D2D2",
"F c #D7D8D6",
"G c #D8D8D7",
"H c #DBDBDB",
"J c #E3E3E4",
"K c #E9E9E7",
"L c #EBEBEA",
"P c #EFEFF0",
"I c #F5F5F4",
"U c #F8F8F7",
"Y c #F9F9F9",
"T c None",
/* pixels */
"TTTTTTTTTTTTTTTTTTTTTTTTTTTTTTTTTTTTTTTTTTTTTTTTTTTTTTTTTTTT",
"TTTTTTTTTTTTTTTTTTTTTTTTTTTTTTTTTTTTTTTTTTTTTTTTTTTTTTTTTTTT",
"TTTTTTTTTTTTTTTTTTTTTTTTTTTTTTTTTTTTTTTTTTTTTTTTTTTTTTTTTTTT",
"TTTTTTTTTTTTTTTTTTTTTTTTTTTTTTTTTTTTTTTTTTTTTTTTTTTTTTTTTTTT",
"TTTTTTTTTTTTTTTTTTTTTTTTTTTTTTTTTTTTTTTTTTTTTTTTTTTTTTTTTTTT",
"TTTTTTTTTTTTTTTTTTTTTTTTTTTTTTTTTTTTTTTTTTTTTTTTTTTTTTTTTTTT",
"TTTTTTTTTTTTTTTTTTTTTTTTTTTTTTTTTTTTTTTTTTTTTTTTTTTTTTTTTTTT",
"TTTTTTTTTTTTTTTTTTTTTTTTTTTXXXXXXoTTTTTTTTTTTTTTTTTTTTTTTTTT",
"TTTTTTTTTTTTTTTTTTTTTTTTTT&*********TTTTTTTTTTTTTTTTTTTTTTTT",
"TTTTTTTTTTTTTTTTTTTTTTTTT&qiaaaasii8@TTTTTTTTTTTTTTTTTTTTTTT",
"TTTTTTTTTTTTTTTTTTTTTTTT%,hZSSSSSSZs<*TTTTTTTTTTTTTTTTTTTTTT",
"TTTTTTTTTTTTTTTTTTTTTTT#9hNDHHHHHGDZnu+TTTTTTTTTTTTTTTTTTTTT",
"TTTTTTTTTTTTTTTTTTTTTT=<fZDANmmmVVZLPz<*TTTTTTTTTTTTTTTTTTTT",
"TTTTTTTTTTTTTTTTTTTTT#8jNDFVu3335iVHJDVu+TTTTTTTTTTTTTTTTTTT",
"TTTTTTTTTTTTTTTTTTTT;1sZFAmf<o+o+5gVZPLz5>TTTTTTTTTTTTTTTTTT",
"TTTTTTTTTTTTTTTTTTT#8zNSDNu,TTTTT=<iVHHGVe@TTTTTTTTTTTTTTTTT",
"TTTTTTTTTTTTTTTTTTT#wCFAmf2OTTTTTT+5jMSIJr+TTTTTTTTTTTTTTTTT",
"TTTTTTTTTTTTTTTTTTT#qNFCi>TTTTTTTTT*,aSYJu@TTTTTTTTTTTTTTTTT",
"TTTTTTTTTTTTTTTTTTT#qNGCw@TTTTTTTTTT#tAYJr+TTTTTTTTTTTTTTTTT",
"TTTTTTTTTTTTTTTTTTT#qNGCe#TTTTTTTTTT%tAYJu@TTTTTTTTTTTTTTTTT",
"TTTTTTTTTTTTTTTTTTT#wNFN0@TTTTTTTTTT#tSYJu@TTTTTTTTTTTTTTTTT",
"TTTTTTTTTTTTTTTTTTT#qNDNe&TTTTTTTTTT=uAIJe@TTTTTTTTTTTTTTTTT",
"TTTTTTTTTTTTTTTTTTT#wBFCzr,TTTTTTTT<uxSKDq+TTTTTTTTTTTTTTTTT",
"TTTTTTTTTTTTTTTTTTT#0mAAAm0&TTTTTT=eMAAAv7+TTTTTTTTTTTTTTTTT",
"TTTTTTTTTTTTTTTTTTTT<wzSFZlt>.X.X,uxAGAg0,TTTTTTTTTTTTTTTTTT",
"TTTTTTTTTTTTTTTTTTTTT&enZSSm0---;eMSSCbq#TTTTTTTTTTTTTTTTTTT",
"TTTTTTTTTTTTTTTTTTTTTT,0zSGZcfsdfbAGAj8>TTTTTTTTTTTTTTTTTTTT",
"TTTTTTTTTTTTTTTTTTTTTTT&tbZSDSAADDSCvw%TTTTTTTTTTTTTTTTTTTTT",
"TTTTTTTTTTTTTTTTTTTTTTTT>9xDFDDDFFAj6>TTTTTTTTTTTTTTTTTTTTTT",
"TTTTTTTTTTTTTTTTTTTTTTTTT=tvCSSDAVve&TTTTTTTTTTTTTTTTTTTTTTT",
"TTTTTTTTTTTTTTTTTTTTTTTTTT:8cADSAk5:TTTTTTTTTTTTTTTTTTTTTTTT",
"TTTTTTTTTTTTTTTTTTTTTTTTTTX:jADGGh- TTTTTTTTTTTTTTTTTTTTTTTT",
"TTTTTTTTTTTTTTTTTTTTTTTTTTo>jASJPv:.TTTTTTTTTTTTTTTTTTTTTTTT",
"TTTTTTTTTTTTTTTTTTTTTTTTTTo>jASJUn>.TTTTTTTTTTTTTTTTTTTTTTTT",
"TTTTTTTTTTTTTTTTTTTTTTTTTTo>jASJYn>.TTTTTTTTTTTTTTTTTTTTTTTT",
"TTTTTTTTTTTTTTTTTTTTTTTTTTO>jASJYn>.TTTTTTTTTTTTTTTTTTTTTTTT",
"TTTTTTTTTTTTTTTTTTTTTTTTTTo>jSSJYn> TTTTTTTTTTTTTTTTTTTTTTTT",
"TTTTTTTTTTTTTTTTTTTTTTTTTTO>jASJYn>XTTTTTTTTTTTTTTTTTTTTTTTT",
"TTTTTTTTTTTTTTTTTTTTTTTTTTo>jASJUv> TTTTTTTTTTTTTTTTTTTTTTTT",
"TTTTTTTTTTTTTTTTTTTTTTTTTTo>jASGJz;XTTTTTTTTTTTTTTTTTTTTTTTT",
"TTTTTTTTTTTTTTTTTTTTTTTTTTo>jADDAd;XTTTTTTTTTTTTTTTTTTTTTTTT",
"TTTTTTTTTTTTTTTTTTTTTTTTTTo>jASSZs;XTTTTTTTTTTTTTTTTTTTTTTTT",
"TTTTTTTTTTTTTTTTTTTTTTTTTTo>jADDAs-XTTTTTTTTTTTTTTTTTTTTTTTT",
"TTTTTTTTTTTTTTTTTTTTTTTTTTo>jADSAd-XoOOO+TTTTTTTTTTTTTTTTTTT",
"TTTTTTTTTTTTTTTTTTTTTTTTTTo>jADDAk6,<11,>-TTTTTTTTTTTTTTTTTT",
"TTTTTTTTTTTTTTTTTTTTTTTTTTo>jASDACnvbbbki<@TTTTTTTTTTTTTTTTT",
"TTTTTTTTTTTTTTTTTTTTTTTTTTo>jASDDDFAZmzdt,@TTTTTTTTTTTTTTTTT",
"TTTTTTTTTTTTTTTTTTTTTTTTTTo>jADSSDDCxt,;;TTTTTTTTTTTTTTTTTTT",
"TTTTTTTTTTTTTTTTTTTTTTTTTTo>kADDDDSCna721;TTTTTTTTTTTTTTTTTT",
"TTTTTTTTTTTTTTTTTTTTTTTTTTo>jADSSDSSACMvp1#TTTTTTTTTTTTTTTTT",
"TTTTTTTTTTTTTTTTTTTTTTTTTTo>jADDDSDDFGFNj2#TTTTTTTTTTTTTTTTT",
"TTTTTTTTTTTTTTTTTTTTTTTTTTo>jADDSDSDSSAmd<@TTTTTTTTTTTTTTTTT",
"TTTTTTTTTTTTTTTTTTTTTTTTTTo>jADDSSFFFAmp7>TTTTTTTTTTTTTTTTTT",
"TTTTTTTTTTTTTTTTTTTTTTTTTTo>jASDSAZZCbh4%TTTTTTTTTTTTTTTTTTT",
"TTTTTTTTTTTTTTTTTTTTTTTTTTo>kDDFGmyqw04>TTTTTTTTTTTTTTTTTTTT",
"TTTTTTTTTTTTTTTTTTTTTTTTTTo>fNAACf;+###TTTTTTTTTTTTTTTTTTTTT",
"TTTTTTTTTTTTTTTTTTTTTTTTTTTT2iVMt2TTTTTTTTTTTTTTTTTTTTTTTTTT",
"TTTTTTTTTTTTTTTTTTTTTTTTTTTTo<kh>XTTTTTTTTTTTTTTTTTTTTTTTTTT",
"TTTTTTTTTTTTTTTTTTTTTTTTTTTTTT22TTTTTTTTTTTTTTTTTTTTTTTTTTTT",
"TTTTTTTTTTTTTTTTTTTTTTTTTTTTTT++TTTTTTTTTTTTTTTTTTTTTTTTTTTT"
};
