/* XPM */
static char *result[] = {
/* columns rows colors chars-per-pixel */
"60 60 49 1 ",
"  c #000000",
". c #0B0203",
"X c #100205",
"o c #1C0408",
"O c #0F100F",
"+ c #0F1010",
"@ c #101010",
"# c #250409",
"$ c #29060C",
"% c #2F080E",
"& c #35090E",
"* c #350710",
"= c #370910",
"- c #3A0911",
"; c #3A161C",
": c #2F3030",
"> c #303131",
", c #3D3234",
"< c #450B14",
"1 c #4A0B16",
"2 c #4F0C18",
"3 c #500814",
"4 c #540E19",
"5 c #5A0E1A",
"6 c #5F101C",
"7 c #630F1D",
"8 c #64101E",
"9 c #69101F",
"0 c #6E1120",
"q c #731222",
"w c #7C1325",
"e c #5B383E",
"r c #404141",
"t c #6B484D",
"y c #831426",
"u c #881327",
"i c #871528",
"p c #8A1629",
"a c #8E182B",
"s c #90172B",
"d c #94182C",
"f c #9B192F",
"g c #9E1A30",
"h c #A21B31",
"j c #969797",
"k c #A4999B",
"l c #C7C7C7",
"z c #D4C9CB",
"x c None",
/* pixels */
"xxxxxxxxxxxxxxxxxxxxxxxxxxxxxxxxxxxxxxxxxxxxxxxxxxxxxxxxxxxx",
"xxxxxxxxxxxxxxxxxxxxxxxxxxxxxxxxxxxxxxxxxxxxxxxxxxxxxxxxxxxx",
"xxxxxxxxxxxxxxxxxxxxxxxxxxxxxxxxxxxxxxxxxxxxxxxxxxxxxxxxxxxx",
"xxxxxxxxxxxxxxxxxxxxxxxxxxxxxxxxxxxxxxxxxxxxxxxxxxxxxxxxxxxx",
"xxxxxxxxxxxxxxxxxxxxx=&============xxxxxxxxxxxxxxxxxxxxxxxxx",
"xxxxxxxxxxxxxxxxxxxxx11442444444444xxxxxxxxxxxxxxxxxxxxxxxxx",
"xxxxxxxxxxxxxxxxxxx=17qyiippppppapw2=xxxxxxxxxxxxxxxxxxxxxxx",
"xxxxxxxxxxxxxxxxxxx<5wsfhhgsppppppw64xxxxxxxxxxxxxxxxxxxxxxx",
"xxxxxxxxxxxxxxxxx=<6waghhhd04444450ww2=xxxxxxxxxxxxxxxxxxxxx",
"xxxxxxxxxxxxxxxxx15wsghhggq-$$$$$$=ww02xxxxxxxxxxxxxxxxxxxxx",
"xxxxxxxxxxxxxxx=18waggghs0<o......o<6ww2=xxxxxxxxxxxxxxxxxxx",
"xxxxxxxxxxxxxxx=10aghhfaq-o.       o<qw02xxxxxxxxxxxxxxxxxxx",
"xxxxxxxxxxxxxxx=10pghhd0-o.        .o<9ww4=xxxxxxxxxxxxxxxxx",
"xxxxxxxxxxxxxxx15qifhha4$.          .$4ap4=xxxxxxxxxxxxxxxxx",
"xxxxxxxxxxxxx=17qwifhhp4%.          .$4pp4=xxxxxxxxxxxxxxxxx",
"xxxxxxxxxxxxx=1qiyisggp4$.+>>@    +:,;4pp4=xxxxxxxxxxxxxxxxx",
"xxxxxxxxxxxxx&20yiiiagp4#.:jj:    >jke3up4&xxxxxxxxxxxxxxxxx",
"xxxxxxxxxxxxx-10wqqwpgp4# rllr    rlzt3up4=xxxxxxxxxxxxxxxxx",
"xxxxxxxxxxxxx=10q54qpgp4#.ellr    rlzt1up4=xxxxxxxxxxxxxxxxx",
"xxxxxxxxxxxxx=20q1<0pgp4#.:jj>    >jke3yy4=xxxxxxxxxxxxxxxxx",
"xxxxxxxxxxxxx=2qq110pgp4#.+:>@    +:,;2qq4=xxxxxxxxxxxxxxxxx",
"xxxxxxxxxxxxx=197<10pdp7<o.         .$2qq1=xxxxxxxxxxxxxxxxx",
"xxxxxxxxxxxxxxx2<-1qipppq-o.        .$2qq2&xxxxxxxxxxxxxxxxx",
"xxxxxxxxxxxxxxx===17qwpfa8-o.      .o-4971&xxxxxxxxxxxxxxxxx",
"xxxxxxxxxxxxxxxxxxx15qypiw5-#.    .o-9941xxxxxxxxxxxxxxxxxxx",
"xxxxxxxxxxxxxxxxxxx&<7q0qww5-o....o=4091&xxxxxxxxxxxxxxxxxxx",
"xxxxxxxxxxxxxxxxxxxxx1114qyq6=$$##-7941xxxxxxxxxxxxxxxxxxxxx",
"xxxxxxxxxxxxxxxxxxxxx<<14qiaw644448ww41xxxxxxxxxxxxxxxxxxxxx",
"xxxxxxxxxxxxxxxxxxx&<700qwisfaaispdfpw7<&xxxxxxxxxxxxxxxxxxx",
"xxxxxxxxxxxxxxxxxxx15wppppaghhhhhhhhfsw51xxxxxxxxxxxxxxxxxxx",
"xxxxxxxxxxxxxxxxx=17wafgfdgghhhhhhhhhfsw71=xxxxxxxxxxxxxxxxx",
"xxxxxxxxxxxxxxxxx=19pghhhhhhhhhhhhhhhhfp92=xxxxxxxxxxxxxxxxx",
"xxxxxxxxxxxxxxxxx=10adhhhhhhhhhhhghhhhgi01=xxxxxxxxxxxxxxxxx",
"xxxxxxxxxxxxxxxxx-2qdfhhhhhghghghhhhhhfaq1=xxxxxxxxxxxxxxxxx",
"xxxxxxxxxxxxxxxxx&1yfhhhhhhhhhghhhhhhhhgy2=xxxxxxxxxxxxxxxxx",
"xxxxxxxxxxxxxxxxx<7ahhhhhghhhhhhhhhhhhhhp4=xxxxxxxxxxxxxxxxx",
"xxxxxxxxxxxxxxx=37wdhhhhhhhhhhghhhhhhhhhi2=xxxxxxxxxxxxxxxxx",
"xxxxxxxxxxxxxxx=1qpfhhhfhgghghgffghhhhhha61xxxxxxxxxxxxxxxxx",
"xxxxxxxxxxxxxxx=10pfhhhhhghhhhgapfghhhhhdw01-xxxxxxxxxxxxxxx",
"xxxxxxxxxxxxxxx=10pdhhhhhhhhhhfiighhhghhfa01=xxxxxxxxxxxxxxx",
"xxxxxxxxxxxxxxx=19pfhhhhhhhhhhfiadhhhhhhfa92&xxxxxxxxxxxxxxx",
"xxxxxxxxxxxxxxx=30pfhhhhhhhhhfpwwafhhhffdyq1-xxxxxxxxxxxxxxx",
"xxxxxxxxxxxxxxx=19pdhhhhhhhhfsw55wdfhhfaii01=xxxxxxxxxxxxxxx",
"xxxxxxxxxxxxxxx15qpsfhhfffhfdu91<9idfhfiwy01=xxxxxxxxxxxxxxx",
"xxxxxxxxxxxxx=19qwyisffsaffsii9119uiaffayyq1=xxxxxxxxxxxxxxx",
"xxxxxxxxxxxxx=10yyyyiddaadduyq7--7wwiddiyy01=xxxxxxxxxxxxxxx",
"xxxxxxxxxxxxx=1qiyyyiisddsiiq5=oo-5qiiiiyy01=xxxxxxxxxxxxxxx",
"xxxxxxxxxxxxx=10yqqwwyidduwq7-o..$10yywqqw01-xxxxxxxxxxxxxxx",
"xxxxxxxxxxxxx=1qq64qyyiipyq5-o. .$20ii044qq2&xxxxxxxxxxxxxxx",
"xxxxxxxxxxxxx=196<10wqqwyiq1$.  .#-8qyq54971=xxxxxxxxxxxxxxx",
"xxxxxxxxxxxxxxx2<-2qq54qyyq2$.   .o-5qyq841xxxxxxxxxxxxxxxxx",
"xxxxxxxxxxxxxxx=&=1791<9qq71$X    .$18qq91=xxxxxxxxxxxxxxxxx",
"xxxxxxxxxxxxxxxxx--11xx1211-=xxxx .$<<122xxxxxxxxxxxxxxxxxxx",
"xxxxxxxxxxxxxxxxx-==&xx$$%$=-xxxx .#%&-&=xxxxxxxxxxxxxxxxxxx",
"xxxxxxxxxxxxxxxxxxxxxxx...Xxxxxxxxx.Xxxxxxxxxxxxxxxxxxxxxxxx",
"xxxxxxxxxxxxxxxxxxxxxxx    xxxxxxxx  xxxxxxxxxxxxxxxxxxxxxxx",
"xxxxxxxxxxxxxxxxxxxxxxxxx  xxxxxxxx  xxxxxxxxxxxxxxxxxxxxxxx",
"xxxxxxxxxxxxxxxxxxxxxxxxx  xxxxxxxx  xxxxxxxxxxxxxxxxxxxxxxx",
"xxxxxxxxxxxxxxxxxxxxxxxxx  xxxxxxxx  xxxxxxxxxxxxxxxxxxxxxxx",
"xxxxxxxxxxxxxxxxxxxxxxxxx  xxxxxxxx  xxxxxxxxxxxxxxxxxxxxxxx"
};
