/* XPM */
static char *result[] = {
/* columns rows colors chars-per-pixel */
"60 60 190 2 ",
"   c #060102",
".  c #0C0102",
"X  c #1B0202",
"o  c #120202",
"O  c #2B0404",
"+  c #230303",
"@  c #3F0807",
"#  c #390707",
"$  c #420908",
"%  c #4C0B0A",
"&  c #400907",
"*  c #530C0C",
"=  c #5C0E0D",
"-  c #620F0B",
";  c #64100D",
":  c #6A110E",
">  c #73140F",
",  c #6B1210",
"<  c #721411",
"1  c #7B1612",
"2  c #841914",
"3  c #8C1B16",
"4  c #8F1D19",
"5  c #821712",
"6  c #931D16",
"7  c #991E17",
"8  c #941D18",
"9  c #9B1F19",
"0  c #9E201A",
"q  c #A3211B",
"w  c #A8241F",
"e  c #A92521",
"r  c #AE2A25",
"t  c #A82D28",
"y  c #B02B27",
"u  c #B52E2B",
"i  c #B82F2D",
"p  c #B6302D",
"a  c #B9312F",
"s  c #BB3A2F",
"d  c #B63231",
"f  c #BD3534",
"g  c #BB3835",
"h  c #BD3C3B",
"j  c #A83531",
"k  c #C23635",
"l  c #C63836",
"z  c #C23C3D",
"x  c #CC3B3A",
"c  c #CD3A37",
"v  c #D43D3C",
"b  c #DC3E3D",
"n  c #E03F3E",
"m  c #CE433F",
"M  c #D5423E",
"N  c #DD423D",
"B  c #DB4A3C",
"V  c #CE5637",
"C  c #DB543D",
"Z  c #DB5A3E",
"A  c #D7533C",
"S  c #E0403F",
"D  c #CE663F",
"F  c #BE3F40",
"G  c #C23F41",
"H  c #DC3F40",
"J  c #E13F40",
"K  c #BF4242",
"L  c #B94744",
"P  c #C34544",
"I  c #C44B4B",
"U  c #CB4948",
"Y  c #D44645",
"T  c #DB4242",
"R  c #D64A43",
"E  c #DB4748",
"W  c #DB4C4B",
"Q  c #D74A48",
"!  c #CB584C",
"~  c #DB5241",
"^  c #D4514F",
"/  c #D65747",
"(  c #D24F51",
")  c #CA5C5B",
"_  c #C85A56",
"`  c #DC5554",
"'  c #DC5B5C",
"]  c #D55653",
"[  c #E04041",
"{  c #DA6747",
"}  c #DD794B",
"|  c #DC7549",
" . c #DF6654",
".. c #DC6E52",
"X. c #DE7C51",
"o. c #E06942",
"O. c #D75F61",
"+. c #C96B6C",
"@. c #D46464",
"#. c #D96364",
"$. c #D36B6D",
"%. c #D96B6A",
"&. c #DD6865",
"*. c #DC716C",
"=. c #DE6D70",
"-. c #DC7575",
";. c #DE7B7A",
":. c #DA7976",
">. c #E06364",
",. c #E17D6A",
"<. c #E27576",
"1. c #E37C7E",
"2. c #DE914C",
"3. c #D9984C",
"4. c #DF8351",
"5. c #E0824E",
"6. c #E4934B",
"7. c #E38459",
"8. c #E69956",
"9. c #E5AA5D",
"0. c #E7A557",
"q. c #E9B45D",
"w. c #EABA5A",
"e. c #D9896B",
"r. c #DD8078",
"t. c #E69975",
"y. c #E58C74",
"u. c #E3AA63",
"i. c #EAB263",
"p. c #EABC6C",
"a. c #E6A77A",
"s. c #ECB574",
"d. c #EAC85B",
"f. c #E9CA66",
"g. c #E7C46C",
"h. c #E9C66C",
"j. c #E7CB6C",
"k. c #E8C867",
"l. c #E7C671",
"z. c #EAC573",
"x. c #E6CA71",
"c. c #EAC37B",
"v. c #E7C479",
"b. c #DE7F80",
"n. c #E37E80",
"m. c #DA8383",
"M. c #DB9A9A",
"N. c #E38484",
"B. c #E38689",
"V. c #E58C8D",
"C. c #E88987",
"Z. c #E6998C",
"A. c #E58F90",
"S. c #E88F91",
"D. c #E69293",
"F. c #EA9494",
"G. c #E39798",
"H. c #EA9698",
"J. c #EA9B9C",
"K. c #E79B98",
"L. c #EBAA83",
"P. c #ECBF8D",
"I. c #EDB989",
"U. c #EBA696",
"Y. c #ECB493",
"T. c #EDBC9C",
"R. c #EC9EA1",
"E. c #E7A6A5",
"W. c #ECA3A3",
"Q. c #ECA7A9",
"!. c #EBABAC",
"~. c #EEACA6",
"^. c #EDBBA4",
"/. c #EDBAAB",
"(. c #EEB5AC",
"). c #EDAEB1",
"_. c #EDB5B5",
"`. c #EDBBB2",
"'. c #ECBABB",
"]. c #EEB7B9",
"[. c #E9C48A",
"{. c #EAC097",
"}. c #E6BFC1",
"|. c #E8BEC2",
" X c #E4C0C0",
".X c #F0C1C3",
"XX c #F2C8CB",
"oX c #F4D7D9",
"OX c #F7DFE2",
"+X c None",
/* pixels */
"+X+X+X+X+X+X+X+X+X+X+X+X+X+X+X+X+X+X+X+X+X+X+X+X+X+X+X+X+X+X+X+X+X+X+X+X+X+X+X+X+X+X+X+X+X+X+X+X+X+X+X+X+X+X+X+X+X+X+X+X",
"+X+X+X+X+X+X+X+X+X+X+X+X+X+X+X+X+X+X+X+X+X+X+X+X+X+X+X+X+X+X+X+X+X+X+X+X+X+X+X+X+X+X+X+X+X+X+X+X+X+X+X+X+X+X+X+X+X+X+X+X",
"+X+X+X+X+X+X+X+X+X+X+X+X+X+X+X+X+X+X+X+X+X+X+X+X+X+Xl.x.j.+X+X+X+X+X+X+X+X+X+X+X+X+X+X+X+X+X+X+X+X+X+X+X+X+X+X+X+X+X+X+X",
"+X+X+X+X+X+X+X+X+X+X+X+X+X+X+X+X+X+X+X+X+X+X+X+Xl.c.T.^.^.{.a.+X+X+X+X+X+X+X+X+X+X+X+X+X+X+X+X+X+X+X+X+X+X+X+X+X+X+X+X+X",
"+X+X+X+X+X+X+X+X+X+X+X+X+X+X+X+X+X+X+X+X+X+X+X[.T.^._.'.'.`.`.~.+X+X+X+X+X+X+X+X+X+X+X+X+X+X+X+X+X+X+X+X+X+X+X+X+X+X+X+X",
"+X+X+X+X+X+X+X+X+X+X+X+X+X+X+X+X+X+X+X+X+X+X+X/.].'._.!.'.oXOX.X_.{.+X+X+X+X+X+X+X+X+X+X+X+X+X+X+X+X+X+X+X+X+X+X+X+X+X+X",
"+X+X+X+X+X+X+X+X+X+X+X+X+X+X+X+X+X+X+X+X+X+X+X+X+X+X+X&.F.!.XX.X_./.L.+X+X+X+X+X+X+X+X+X+X+X+X+X+X+X+X+X+X+X+X+X+X+X+X+X",
"+X+X+X+X+X+X+X+X+X+X+X+X+X+X+X+X+X+X+X+X+X+X+X+X+X7.W [ [ ` B._.).~.*.} +X+X+X+X+X+X+X+X+X+X+X+X+X+X+X+X+X+X+X+X+X+X+X+X",
"+X+X+X+X+X+X+X+X+X+X+X+X+X+X+X+X+X+X+X+X+X+X+X+X_ R N n n n  .L.U.S.<.~ Y +X+X+X+X+X+X+X+X+X+X+X+X+X+X+X+X+X+X+X+X+X+X+X",
"+X+X+X+X+X+X+X+X+X+X+X+X+X+X+X+X+X+X+X+X+X+X+X+X+X+XM b n ~ | 6.e.m.S.1.W T T +X+X+X+X+X+X+X+X+X+X+X+X+X+X+X+X+X+X+X+X+X",
"+X+X+X+X+X+X+X+X+X+X+X+X+X+X+X+X+X+X+X+X+X+X! +XY T M v x Z { s d $.S.D.>.b T +X+X+X+X+X+X+X+X+X+X+X+X+X+X+X+X+X+X+X+X+X",
"+X+X+X+X+X+X+X+X+X+X+X+X+X+X+X+X+X+X+X+X+Xi./ ( T T x k f f g d f ) A.S.<.W b Y +X+X+X+X+X+X+X+X+X+X+X+X+X+X+X+X+X+X+X+X",
"+X+X+X+X+X+X+X+X+X+X+X+X+X+X+X+X+X+X+X+X+X4.B T b x k f f k f f f f ) b.J.y.C N +X+X+X+X+X+X+X+X+X+X+X+X+X+X+X+X+X+X+X+X",
"+X+X+X+X+X+X+X+X+X+X+X+X+X+X+X+X+X+X+X+Xq.C [ H x f h f f f k d r a f O.F.s.o.b Y +X+X+X+X+X+X+X+X+X+X+X+X+X+X+X+X+X+X+X",
"+X+X+X+X+X+X+X+X+X+X+X+X+X+X+X+X+X X+X+Xi.C b x f f f f a r y e q e r $.S.a. .b T +X+X+X+X+X+X+X+X+X+X+X+X+X+X+X+X+X+X+X",
"+X+X+X+X+X+X+X+X+X+X+X+X+X+X+X+X+X+X+X+X| B M K :.$.h f e q q q q q q L -.R.O.v T ^ +X+X+X+X+X+X+X+X+X+X+X+X+X+X+X+X+X+X",
"+X+X+X+X+X+X+X+X+X+X+X+X+X+X+X+X+X+X+Xi.C E 1.B.H.1.g e 0 0 3 0 7 9 9 8 ) $.K v H T +X+X+X+X+X+X+X+X+X+X+X+X+X+X+X+X+X+X",
"+X+X+X+X+X+X+X+X+X+X+X+X+X+X+X+X+X+X+X| N ` R.H.;.I p q 0 3 3 3 3 8 3 8 ) ( f k v T +X X+X+X+X+X+X+X+X+X+X+X+X+X+X+X+X+X",
"+X+X+X+X+X+X+X+X+X+X+X+X+X+X+X+X+X+Xi.Z E n.A.<.U p w 0 8 3 4 4 8 6 6 6 +.L d f k Y +X X|.+X+X+X+X+X+X+X+X+X+X+X+X+X+X+X",
"+X+X+X+X+X+X+X+X+X+X+X+X+X+X+X+X+X+X{ B ] J.n.I f p q 0 6 4 8 8 8 7 9 7 j t u g k Y +X+X X+X+X+X+X+X+X+X+X+X+X+X+X+X+X+X",
"+X+X+X+X+X+X+X+X+X+X+X+X+X+X+X+X+X+XY E C.D.;.P p e 7 3 3 3 4 3 6 7 7 q 0 q p f x Y +X+X|.+X+X+X+X+X+X+X+X+X+X+X+X+X+X+X",
"+X+X+X+X+X+X+X+X+X+X+X+X+X+X+X+X+X+XY W J.D.m.G u 0 3 3 2 5 5 1 5 3 7 q q q i f v N ] E.'.+X+X+X+X+X+X+X+X+X+X+X+X+X+X+X",
"+X+X+X+X+X+X+X+X+X+X+X+X+X+X+X+X+X+XY E F.B.I d q q 6 3 1 < , - - 5 9 0 q q p f k v [ W.'.+X+X+X+X+X+X+X+X+X+X+X+X+X+X+X",
"+X+X+X+X+X+X+X+X+X+X+X+X+X+X+X+X+X+XY ` N.B.F e q 0 6 2 1 : = = = > 7 9 0 q u f k v W W.T.x.+X+X+X+X+X+X+X+X+X+X+X+X+X+X",
"+X+X+X+X+X+X+X+X+X+X+X+X+X+X+X+X+X+X( C.n.I f y q 7 3 2 1 : = = = < 3 4 0 0 u f k v E U.h.j.+X+X+X+X+X+X+X+X+X+X+X+X+X+X",
"+X+X+X+X+X+X+X+X+X+X+X+X+X+X+X+X+X+X@.n.1.G a w 0 3 3 2 < ; = = = = 1 0 0 q q p k v ' U.h.+X+X+X+X+X+X+X+X+X+X+X+X+X+X+X",
"+X+X+X+X+X+X+X+X+X+X+X+X+X+X+X+X+X+XY.C.%.h a w 7 3 1 < = = * * % = < 8 0 q w p k Y H.^.z.+X+X+X+X+X+X+X+X+X+X+X+X+X+X+X",
"+X+X+X+X+X+X+X+X+X+X+X+X+X+X+X+X+X+Xz.t.L f u q 8 3 1 < - = & O @ = 1 4 3 7 0 p k Y R.^.h.+X+X+X+X+X+X+X+X+X+X+X+X+X+X+X",
"+X+X+X+X+X+X+X+X+X+X+X+X+X+X+X+X+Xj.g.r.h f w 0 6 3 1 > * $ + o O % 1 9 7 8 9 i k Y J.P.k.+X+X+X+X+X+X+X+X+X+X+X+X+X+X+X",
"+X+X+X+X+X+X+X+X+X+X+X+X+X+X+X+X+Xk.a.K f a w 9 6 3 1 < % + .   X $ 1 8 7 7 9 i k U Z.h.f.+X+X+X+X+X+X+X+X+X+X+X+X+X+X+X",
"+X+X+X+X+X+X+X+X+X+X+X+X+X+X+X+Xk.3.,.Q k d e 0 6 3 1 < % X   . O % 1 7 0 7 9 a k Y L.h.+X+X+X+X+X+X+X+X+X+X+X+X+X+X+X+X",
"+X+X+X+X+X+X+X+X+X+X+X+X+X+X+X+Xg.e.B.W k d w q 6 3 1 < * # X X @ = 1 7 0 0 r a h =.U.z.+X+X+X+X+X+X+X+X+X+X+X+X+X+X+X+X",
"+X+X+X+X+X+X+X+X+X+X+X+X+X+X+X+Xk.Y.r.T k d e 9 7 3 1 , = * $ $ % = 1 9 9 q u f h D./.x.+X+X+X+X+X+X+X+X+X+X+X+X+X+X+X+X",
"+X+X+X+X+X+X+X+X+X+X+X+X+X+X+X+Xf.p. .b k f y q 8 3 1 < = = = = = = < 9 q q u k h G.^.z.+X+X+X+X+X+X+X+X+X+X+X+X+X+X+X+X",
"+X+X+X+X+X+X+X+X+X+X+X+X+X+X+X+Xf.d.Z b k k f q 6 3 1 < = = = = = = 1 8 9 q i f h G./.z.+X+X+X+X+X+X+X+X+X+X+X+X+X+X+X+X",
"+X+X+X+X+X+X+X+X+X+X+X+X+X+X+X+Xj.s.` b k k d w 9 6 3 1 < ; = = = = 1 8 9 q u f h G./.x.+X+X+X+X+X+X+X+X+X+X+X+X+X+X+X+X",
"+X+X+X+X+X+X+X+X+X+X+X+X+X+X+X+Xj.+X+XR k f f u w 0 3 3 2 , = = = , 2 8 q q u f h G.^.x.+X+X+X+X+X+X+X+X+X+X+X+X+X+X+X+X",
"+X+X+X+X+X+X+X+X+X+X+X+X+X+X+X+Xj.{.+XU k f f a w 0 6 3 2 : - = = 1 8 7 0 q u h K Z.c.j.+X+X+X+X+X+X+X+X+X+X+X+X+X+X+X+X",
"+X+X+X+X+X+X+X+X+X+X+X+X+X+X+X+Xv.Y.@.T l k f f u q 6 6 3 5 : < 2 2 4 7 6 9 i g ;.Z.i.+X+X+X+X+X+X+X+X+X+X+X+X+X+X+X+X+X",
"+X+X+X+X+X+X+X+X+X+X+X+X+X+X+X+X^.~.` b v k f h a 0 6 6 8 3 3 3 4 2 2 8 7 0 u G ;.N.{ ! +X+X+X+X+X+X+X+X+X+X+X+X+X+X+X+X",
"+X+X+X+X+X+X+X+X+X+X+X+X+X+X+X+X'._.' M b l K g i q 6 7 9 7 8 6 3 3 3 7 0 q p ' 1.C./ 8.+X+X+X+X+X+X+X+X+X+X+X+X+X+X+X+X",
"+X+X+X+X+X+X+X+X+X+X+X+X+X+X+X+X+X'.+XY b P r.I h q q 9 9 9 7 6 6 6 7 q q u z <.` W R q.+X+X+X+X+X+X+X+X+X+X+X+X+X+X+X+X",
"+X+X+X+X+X+X+X+X+X+X+X+X+X+X+X+X+X.X+X/ M U J.B.#.d w q q 9 7 3 6 7 7 0 q i #.<.[ S Z i.+X+X+X+X+X+X+X+X+X+X+X+X+X+X+X+X",
"+X+X+X+X+X+X+X+X+X+X+X+X+X+X+X+X+X X+Xu.A U U.~.-.h y q 0 q 9 3 6 9 q q q h -.` E B 8.+X+X+X+X+X+X+X+X+X+X+X+X+X+X+X+X+X",
"+X+X+X+X+X+X+X+X+X+X+X+X+X+X+X+X+X|.+Xq.Z ~ i.I.;.I i q q 9 9 6 0 0 q q w L %.W n B 9.+X+X+X+X+X+X+X+X+X+X+X+X+X+X+X+X+X",
"+X+X+X+X+X+X+X+X+X+X+X+X+X+X+X+X+X X+Xq.Z [ 6.q.y.=.d w q 0 6 3 6 q w q q 0 f M N { 9.+X+X+X+X+X+X+X+X+X+X+X+X+X+X+X+X+X",
"+X+X+X+X+X+X+X+X+X+X+X+X+X+X+X+X+X}.+Xq.Z M V 0.t.%.h i e q 9 2 6 q q w w a v b B 0.+X+X+X+X+X+X+X+X+X+X+X+X+X+X+X+X+X+X",
"+X+X+X+X+X+X+X+X+X+X+X+X+X+X+X+X+X+X+X+X~ n B 6.q.;._ h u q q q 0 w e a k v b b { 9.+X+X+X+X+X+X+X+X+X+X+X+X+X+X+X+X+X+X",
"+X+X+X+X+X+X+X+X+X+X+X+X+X+X+X+X+X+X+X+X..B b V q.a.1.h a e q q w i k f k b b B 8.+X+X+X+X+X+X+X+X+X+X+X+X+X+X+X+X+X+X+X",
"+X+X+X+X+X+X+X+X+X+X+X+X+X+X+X+X+X+X+X+X+X} B B 6.i.,.I f a y y i k k c b N b B 0.+X+X+X+X+X+X+X+X+X+X+X+X+X+X+X+X+X+X+X",
"+X+X+X+X+X+X+X+X+X+X+X+X+X+X+X+X+X+X+X+X+X+XR N B 7.D.b.) h f f f f v J S S N { u.+X+X+X+X+X+X+X+X+X+X+X+X+X+X+X+X+X+X+X",
"+X+X+X+X+X+X+X+X+X+X+X+X+X+X+X+X+X+X+X+X+X+X} B n O.Q.U.A.) f f k v v H [ S | u.+X+X+X+X+X+X+X+X+X+X+X+X+X+X+X+X+X+X+X+X",
"+X+X+X+X+X+X+X+X+X+X+X+X+X+X+X+X+X+X+X+X+X+X+XR Q +XM.m.J.A.@.x b J [ [ S T +X+X+X+X+X X+X+X+X+X+X+X+X+X+X+X+X+X+X+X+X+X",
"+X+X+X+X+X+X+X+X+X+X+X+X+X+X+X+X+X+X+X+X+X+X+X5.R +X+X+.b.Q.W.C.&.T n M T ] +X`.[.+X+X+X+X+X+X+X+X+X+X+X+X+X+X+X+X+X+X+X",
"+X+X+X+X+X+X+X+X+X+X+X+X+X+X+X+X+X+X+X+X+X+X+X+X4./ ( ^ &.(.`._.W.>.T ^ +X+X|./.c.+X+X+X+X+X+X+X+X+X+X+X+X+X+X+X+X+X+X+X",
"+X+X+X+X+X+X+X+X+X+X+X+X+X+X+X+X+X+X+X+X+X+X+X+X+X5.T H ..z.z.P._.W.S.!.`./.(.[.+X+X+X+X+X+X+X+X+X+X+X+X+X+X+X+X+X+X+X+X",
"+X+X+X+X+X+X+X+X+X+X+X+X+X+X+X+X+X+X+X+X+X+X+X+X+X+X+X+X+X+Xd.d.I./././.I.z.c.+X+X+X+X+X+X+X+X+X+X+X+X+X+X+X+X+X+X+X+X+X",
"+X+X+X+X+X+X+X+X+X+X+X+X+X+X+X+X+X+X+X+X+X+X+X+X+X+X+X+X+X+X+Xd.f.x.z.z.k.+X+X+X+X+X+X+X+X+X+X+X+X+X+X+X+X+X+X+X+X+X+X+X",
"+X+X+X+X+X+X+X+X+X+X+X+X+X+X+X+X+X+X+X+X+X+X+X+X+X+X+X+X+X+X+X+X+X+X+X+X+X+X+X+X+X+X+X+X+X+X+X+X+X+X+X+X+X+X+X+X+X+X+X+X",
"+X+X+X+X+X+X+X+X+X+X+X+X+X+X+X+X+X+X+X+X+X+X+X+X+X+X+X+X+X+X+X+X+X+X+X+X+X+X+X+X+X+X+X+X+X+X+X+X+X+X+X+X+X+X+X+X+X+X+X+X"
};
