/* XPM */
static char *result[] = {
/* columns rows colors chars-per-pixel */
"60 60 30 1 ",
"  c #442D1A",
". c #4B341F",
"X c #412E22",
"o c #453224",
"O c #493526",
"+ c #4D3927",
"@ c #4B3728",
"# c #4E3928",
"$ c #513A25",
"% c #523D2A",
"& c #56412D",
"* c #5B452E",
"= c #5F482E",
"- c #5C4630",
"; c #5E4830",
": c #624A2F",
"> c #644C31",
", c #684F32",
"< c #665134",
"1 c #6C5233",
"2 c #6E5738",
"3 c #6F5839",
"4 c #705636",
"5 c #725937",
"6 c #715738",
"7 c #755C3A",
"8 c #785F3B",
"9 c #77603C",
"0 c #7B623D",
"q c #7E6640",
/* pixels */
"o@%&##%#$$$%::::*:-*****$%-->---**:**********====*&%$$$$$@OX",
"O&;<>=**:::::::,:>>>,,:*%%>1<1>>,,,,,,,,,,:,,::,>>::=**-*%$@",
"@*254,,,,,,,,,,1,,,1,1,&%%,77411,,1,,,,11111,111,,,1,,,,,:$O",
"+;505411111111111111,1,*$%,7744,111,,1111,111111111111141:%O",
"#;50511111111111111111,*#%,876411111111111111111111111411:%@",
"#>509441111111,1111111,*##<77611111111111,111111144411111:%@",
"#=70054111111111111111,*#%,784111111111111111111655411141:$@",
"#;50q0541,111,11111111,*#%>88641111,111111,111,1588411111:%@",
"#;5qq072111111111111111%#%<8q5321111111111111,><888611111:%@",
"+-50q07411111111111111,:#%>8q7741111111111111>>>688611111:%@",
"#;5q007411111111111111,%##<8qq85111111111111,>->178764111:%$",
"#;5q007411111111111111,*%%<9qq051111111111111>-:,67866111,*%",
"#;3qqq711,11,411111111,*##,8qq95411111111111,,:%>16886411,:%",
"#>3qqq7211114,14111,11,*%#>500076411111111111,>::>6707111:>-",
"-<7qq9521111,11,111111:*##:280008611111111111,,:::,707611,:*",
"-<7qq75311111111111114,*##&150qq07641141411111,,:*>6866,1,*%",
"=1808844111,1,11111111,*+O%>28qqq977766764114,1>-%-687411,;&",
"=15954111,441411111111,*$o%*180qq90900097621,24,%%-387421<>&",
";<88441144444444441111,*$o+%>390qqqqqqqq0766663<-#-<886622<&",
"-2804,,144888088885111,*+oo+-1809qqqqqqqq0777972-#%28q9986;&",
";<50441448900qqqq884141:@oXO%>2599qq9qq980999972-#%29q9987<&",
"*<5784489qqqqqqqqq88586:#oXo%*>2222233<36433222;%@%>33332<<%",
"*>25880900q00000qq00887:%oXo#&*;;<>>>->>>>>>;-&%OO@&<;;<;--%",
"*=>14889900000098088887:#oXo+#&&&-&&&-%-%-&&%%@oXXO%%%%&&--%",
"&**>><3555558557775<<<>*@oXooO#&%-%%%&%-&&&#@Oo XXoO@@+#&&-&",
"-&--->>24444444411<<>=&&OooooOO&&%----%--&&%@oooXoo@OoO@#&&&",
"&-;>>>>1,111111111>==-&+OXoO##&&*:::--:--**&%#$$%%%$++O@#&&&",
"-<22<>,,1111111111<<>-&+oO@#&*=;>>>:>>>,,>>>:=*:*:*:*&&@####",
"*<954111111111111111,>*&OO&*=>,,11111,1,11,11,11,11,:=*#OO@#",
"*2995111111111111111,,=&O+&<2211111111112,111111111111:&@oOO",
"-27051111111111111111,>*+&:555111111111111111111111111>*@Ooo",
"-<7051111111111,111,1,,*+&,995111,111111111111111111111*#OoX",
"-2505111111111111111111:$:,8841111111111111111111111111:$$$.",
"-<99711111,11111111111,::,4884111111111111111111111111,,:$# ",
"-<995111111111111111111,:,485411,111111111111111111111,,=*+.",
"-259511111111111,111111,,488844111111111111111,11111111,<*&o",
"-2503211,1111111111,1111145084111111111111111111111111141:& ",
"-<99511111111111111111111489841111,111,111111111111111111:%o",
"-2395111111,1111111,111,14505411111111111,111,11111111111:&o",
"-29951111111111111111111148084111111111111111111111111111:&.",
"*4885111,111111111111111148874111111111111111111111111111=&o",
"*,8851111111111111111111148074111111111111,11111111111111=&X",
"*1885111111111111111111,11887411,11111111111111111111111<:&o",
"=188511111111,111,11111114888441111111111111111111111,111:&o",
"-250541111111111111111111488741111111111,1111111111111111:&.",
";<795111111111111111111,1489841111111111111,1111111111111:&.",
"-<8951111111111111111111,4898521111111111111111111111115,=&X",
"&<594111111111,111111111,48007541,11,1111111111111111111,=&.",
"#;795211111111111111111,145000741111111111111111111111111:&.",
"#;5992111,111111111111111480q08511111111111111111111,1111:& ",
"#;7q005111111111111111111480qq051111111111111111111,11111:&X",
"#;3q0051111111111111111,1450q007111111111111111111111111<:&o",
"#;50007411,111111111111,<<250q0984111111111111,1111111111:%.",
"#;7qq0754,4,11,11111111:>;<490008541111111111111111111141:%.",
"@;5qq075411111111111111:=*;150qq8841444444415515441444553<&X",
"#;70q00744111111111111,:-**=2000q888588559999959888858889<=O",
"@;50qqq0871141141141411,=*&:<700q0088088888899998880999991=.",
"@*2000q0875755555555554:$$$&>239880q888585555999888895941:&o",
"#&1500q0008009000008805:..$&==,14808541,,:1,><14555541,:&&OX",
"@%>500q0q000q0000000qq8,. .&**=,480041,:*&**==,111111:=$OOXX"
};
