/* XPM */
static char *result[] = {
/* columns rows colors chars-per-pixel */
"60 60 63 1 ",
"  c #2A1A0F",
". c #311E0F",
"X c #2D1C11",
"o c #311F11",
"O c #342213",
"+ c #3A2515",
"@ c #3D2916",
"# c #3A2718",
"$ c #3D2A18",
"% c #422B16",
"& c #482E17",
"* c #432D19",
"= c #482F19",
"- c #45311C",
"; c #4B331D",
": c #4F391F",
"> c #51361E",
", c #53391F",
"< c #4A3620",
"1 c #4D3921",
"2 c #513720",
"3 c #543B21",
"4 c #5A3E22",
"5 c #554126",
"6 c #5E4124",
"7 c #574328",
"8 c #5C4629",
"9 c #5E492B",
"0 c #614324",
"q c #654927",
"w c #644728",
"e c #644B2A",
"r c #6A4C2A",
"t c #66512E",
"y c #6D522D",
"u c #72552E",
"i c #76592F",
"p c #785B2F",
"a c #654D31",
"s c #675230",
"d c #6B5431",
"f c #6E5834",
"g c #725631",
"h c #745A33",
"j c #795D33",
"k c #755C39",
"l c #795F3B",
"z c #7C6136",
"x c #766038",
"c c #7D643A",
"v c #826537",
"b c #81663B",
"n c #846A3D",
"m c #896E3E",
"M c #866D40",
"N c #896E40",
"B c #8C7242",
"V c #8D7548",
"C c #907745",
"Z c #927947",
"A c #907749",
"S c #957C49",
"D c #9B8553",
/* pixels */
"7qq4;%++###$-17ehlcMVSDDDSABMla1#-9jbmmBCZDZCNclkkhkkgaw3=#+",
";34>%+ooXooO$=;5eykcmCSSSANvjg8<#<ecmCCBBBNnvirrwwwww043=%+o",
"&>3;*+OoXXO*->4qgjbnBBZSSVmmvle1$<sMCZCBncxhur0664666642=*++",
"*:42=&+Ooo+;4wyucmNNBBBBVVBBNMk3-1fMZCNbjurqq000666060642&+o",
"*;332;*+++%3qrujlbbbbbbbbbbvncd3<1xMVvliuq000060000666063=%o",
"#;3332=*++;0yyrruuuugguuguguggw<$1kMnjurqw6666000600000632%o",
"#=23432=%%>riyr00wwqww00w0wqww3*#3hblrw0000606006000060642=#",
"%<33333;&=3uviq0400440006666642*+<djpq06000000066060000603;*",
"%<33234>&=4hchr000046066600666>*#-wgrr04666640000400060664,&",
"%<33333>%%2agyw444404446044446>*#*4ar0006644444600000000004&",
"%=33332;*#%<7004334444344433442&#*3ww0006432>36700000660063=",
"o*24422*+oo+&>332>2443>34433342*o*20000443<;;;2344000000063*",
"#-<222;%ooXo+*<222223333333340>&#%;4000442;;-;:2,00w060604<*",
"#*-<;;**ooXXo#=<=;;;,,33>>,4042*o*2400432;;*-;;;,,46666643;%",
"o#*-**oooXXXo#*=-;;;;>,;;;;,44;*o%;34332;-**$-$$==223,4432*#",
"o##ooooooXXXo++*-<-;;;=&%%&;;;;$oo%=>22;-***$#$#+%**=>>>2<*#",
"XXXXXXXX XXXooo***--**#%o%#%%&%+XoO#*&<*%%#+ooXXoXOO++$-==$#",
"           Xooooo%#%#oooooooo%#oXXooo####OOoXXXXXXXX..+####O",
"XXXXXXooXXoXooooooooooooooooo%#oXXooOOO#OOoXXXXXXXXX.OO$OOOo",
"#$----$---*####o##oooo  ooo*=;<<<--%---$#+oX  XXXXXo#$$--<*#",
"<7ssssssaaa842==<*%ooo  oO-3waddyaddaaw43-+oX X  XX$:5qtss7<",
"7kMMmmMMMMckrww0042*+ooXo$3tjnmNNNMMMnbvr7;@#OOOXXO-8uccMMk7",
"9xDDSSSSSSVmbvkggyw3=%ooX$9zmZSSSSSSSSAmbhw3:;-$#OO5tnBZZBx9",
"9xVVSSSSSSCBNNnnMbkr4=ooO-enCSSSSSSSAAAVNncktq5,-OO5kmZZVmk7",
"9xNBBBmBNNNnnNnnmvvu0>%+$5fnCBBNnnNnNNNNNNMvpuq0:$$5fmBmnvw2",
"1skjjkhkgvvkkvvbjjiy0&%%:ecBBcjkvkbkkvgbjjhiuyr0,$#5tcccguw=",
"-7errrrrrwrwwwwwrrqq,;=>9xnmvhtrrrwrwwwarrrrqqw0,-#-euuyrw4=",
"$560w406000000w04w00,&=4unmnlrw40006000000000000,$O;6req003;",
"%,404660400066006006,&;0jmnvhq0600066666040060042*O-,qq8003-",
"=,006660004060006606,=;wbBvpyq0646600066006660041*O$,666043-",
"=30000000060060000042=;wMMvyq0444440006006000643;#O*>4,4443;",
"*36600600000064004002==wlbvr006,224406006000064:-+O*;43,343-",
"*>4000006000004444,,;%&3thyq06,,,:,644460000043;@OO$<422222*",
"%-34006066006,,>,:;=%++%3700006,;;;,>>366000063&+OO*2422;>;*",
"o*;,,0,4,0604>>=;-%@+.o+@=,4664>;--;;;;,344404>%+.O@<322<=&#",
"o+=;,,,>,,,,>;**$#O... o.+;,4,>:&%$#$%&;;;>344>%OXo#&;>=;<=#",
"+%*=2=&&=>2<;*%+OOO.XXXX.O$-::-*@+OO++++o%%2,,>&OooO#%-;--*#",
"%;3432;&=<==*++oOO...XXXXo#$*$$+OOO..OOOooo*&>%%OoXX.O#$$*##",
"<9aae6,>22;*+ooo..O.OO.. .oO+#Oo .O.OO..ooooo%%.oXXX.OoOo#oo",
"4fMjgrw604<%oooo.+@@@@@@###OOOO##+@@O.OOo+oooo..ooOO#O$$$##o",
"7hvvpuryrw,$OXXX.@&;,64873;;***<15,;%oo.ooXX  XX+%=1355532-#",
"3yzzpiiuir7$o XoO%>qupccxkdr440rhjyw>%+.ooXXXXoO*2wdlxxxka4;",
"2epjppjpju6$XXXo@:9ivmmmCBblhgrkccpr,;++oXXoO$-<4ajnNVNnchw2",
":eijppppji6*o X#:6ivmDDDSZCNnbvvjjuq0,&++oo+-38agvMCZCmchu02",
":eippzpppu9$X X$6ucmBVACZCBBBNvktqwq0,,&Ooo$3yzcNNBCVmcrww4;",
":eppppppit5$XXO<tcmmmnbbncnbvvvrw0,006,&+oO-exmBNnbbvlgw063=",
",eppppiiyq1$  O1fnmvzhyyyyyuuurw060006,&+.o<tbmbvhgurdr0063=",
":epppiiiy61#X O<ycbjurwwwwwwww00000q06,;+.O<fmmzurwww000004=",
":epppppir0;+. o-efiuww0604004066000006,&+.o1fMnir0064000004=",
",epppzpur0>+XXO$3erq006604040000600006>&+.o<dnvuw006040004,=",
":eippppur0;#X o#,74444440000000400004,&&+.O<scjrw664,,,0642%",
":tippppir0;#XXX#;44,2>,440004000066,>&%%+oo-9hhr0063>>,432%%",
",rppppiur6;+XXX$;32<;<<240000040004,>&%.+.o*4rrw0442&&;,2=#o",
",rppppur83-OXXXO&=2<=;>3,000000004,>&%%++oo+;,0643>=&&====%o",
":qppirq65;$OXXXo+%&=;-=2400040604,;%%%%%+o.O+&24,>%%%&&%=%%#",
";4qrq0,><$$XXXXoo%+*=&=234444443,;&%&&%.OoXoo+&2;&%%%%%%%*%+",
"@-:,>&&%@+O.XXXoo+%%%%%&2222222;&&&%%%o%oo oXo#=&%++%%%%&%@o",
"O@@%%%.....XXXXoo++.o%%%%=;=;<**%%%%%%ooooX X oo++++++%%%@@o",
".++++......O..XX....ooo%$*$####+o+++#oooXXXXXXoo.....+++@ooo",
"...+%.+++O+OO..Xooo.ooo.ooooooooooooooooXXXXXXXX....ooo+oooo"
};
